<?xml version="1.0" standalone="no"?><svg xmlns="http://www.w3.org/2000/svg" viewBox="0 0 1440 320"><path fill="#00cba9" fill-opacity="1" d="M0,288L30,288C60,288,120,288,180,250.7C240,213,300,139,360,112C420,85,480,107,540,117.3C600,128,660,128,720,128C780,128,840,128,900,154.7C960,181,1020,235,1080,240C1140,245,1200,203,1260,186.7C1320,171,1380,181,1410,186.7L1440,192L1440,0L1410,0C1380,0,1320,0,1260,0C1200,0,1140,0,1080,0C1020,0,960,0,900,0C840,0,780,0,720,0C660,0,600,0,540,0C480,0,420,0,360,0C300,0,240,0,180,0C120,0,60,0,30,0L0,0Z"></path></svg>